<!DOCTYPE svg PUBLIC "-//W3C//DTD SVG 20010904//EN" "http://www.w3.org/TR/2001/REC-SVG-20010904/DTD/svg10.dtd">
<svg version="1.0" xmlns="http://www.w3.org/2000/svg" width="1200px" height="1200px" viewBox="0 0 12000 12000" preserveAspectRatio="xMidYMid meet">
<g id="layer101" fill="#16b55a" stroke="none">
<path d="M0 6000 l0 -6000 6000 0 6000 0 0 6000 0 6000 -6000 0 -6000 0 0 -6000z"/>
</g>
<g id="layer102" fill="#737373" stroke="none">
<path d="M0 6000 l0 -6000 6000 0 6000 0 0 6000 0 6000 -6000 0 -6000 0 0 -6000z m6720 860 l0 -140 110 0 110 0 0 140 0 140 80 0 80 0 0 -345 0 -345 -80 0 -80 0 0 135 0 135 -110 0 -110 0 0 -135 0 -135 -80 0 -80 0 0 345 0 345 80 0 80 0 0 -140z m940 70 l0 -70 -120 0 -120 0 0 -70 0 -70 115 0 115 0 0 -70 0 -70 -115 0 -115 0 0 -65 0 -65 120 0 120 0 0 -70 0 -70 -200 0 -200 0 0 345 0 345 200 0 200 0 0 -70z m271 0 l24 -70 132 0 132 0 21 58 c11 31 23 63 25 70 3 8 30 12 90 12 l85 0 -17 -42 c-9 -24 -71 -178 -138 -343 l-121 -300 -76 -3 -75 -3 -137 339 c-75 186 -136 341 -136 345 0 4 38 7 83 7 l84 0 24 -70z m999 0 l0 -70 -120 0 -120 0 0 -275 0 -275 -80 0 -80 0 0 345 0 345 200 0 200 0 0 -70z m-2386 -748 c151 -23 250 -80 300 -171 55 -103 52 -234 -9 -357 -27 -56 -63 -102 -159 -202 -124 -131 -175 -195 -201 -255 -12 -28 -14 47 -12 593 0 344 3 575 4 514 l4 -111 73 -11z"/>
</g>
<g id="layer103" fill="#74b658" stroke="none">
<path d="M0 6000 l0 -6000 6000 0 6000 0 0 6000 0 6000 -6000 0 -6000 0 0 -6000z m4952 2173 l3 -87 70 87 c50 63 76 87 93 87 22 0 22 -1 22 -140 l0 -140 -25 0 c-24 0 -24 2 -27 92 l-3 93 -73 -93 c-48 -60 -79 -92 -92 -92 -19 0 -20 7 -20 140 l0 140 25 0 c24 0 24 -2 27 -87z m490 58 l33 -29 3 -111 4 -111 -26 0 c-26 0 -26 0 -26 84 0 99 -10 133 -44 146 -65 25 -96 -21 -96 -145 0 -85 0 -85 -26 -85 l-26 0 4 111 3 111 33 29 c26 24 41 29 82 29 41 0 56 -5 82 -29z m258 -86 l0 -115 45 0 c41 0 45 -2 45 -25 l0 -25 -115 0 -115 0 0 25 c0 23 4 25 45 25 l45 0 0 115 0 115 25 0 25 0 0 -115z m220 70 c0 -43 1 -45 29 -45 24 0 34 8 55 45 23 38 32 45 57 45 l31 0 -30 -51 -29 -51 23 -23 c35 -35 33 -88 -5 -126 -27 -27 -35 -29 -105 -29 l-76 0 0 140 0 140 25 0 c23 0 25 -4 25 -45z m310 -95 l0 -140 -30 0 -30 0 0 140 0 140 30 0 30 0 0 -140z m220 25 l0 -115 45 0 c41 0 45 -2 45 -25 l0 -25 -120 0 -120 0 0 25 c0 23 4 25 45 25 l45 0 0 115 0 115 30 0 30 0 0 -115z m220 -25 l0 -140 -30 0 -30 0 0 140 0 140 30 0 30 0 0 -140z m280 127 c92 -46 93 -204 1 -252 -121 -62 -244 66 -184 192 30 64 118 93 183 60z m210 -78 l0 -92 73 91 c52 67 78 92 95 92 22 0 22 -1 22 -140 l0 -140 -25 0 c-24 0 -24 2 -27 91 l-3 91 -73 -91 c-47 -60 -79 -91 -92 -91 -19 0 -20 7 -20 140 l0 140 25 0 c25 0 25 -1 25 -91z m-1327 -417 c15 -14 17 -13 17 1 0 10 8 17 20 17 18 0 20 -7 20 -70 l0 -70 -50 0 c-43 0 -50 3 -50 20 0 16 7 20 30 20 35 0 38 10 10 35 -27 24 -83 24 -109 1 -41 -37 -35 -132 10 -156 29 -16 71 -11 94 10 18 17 24 18 39 7 22 -16 13 -38 -23 -60 -63 -37 -153 -10 -187 54 -25 50 -15 131 21 169 47 49 116 58 158 22z m1405 1 c60 -37 81 -136 42 -198 -72 -117 -250 -60 -250 80 0 110 116 177 208 118z m340 0 c37 -23 52 -73 52 -173 l0 -90 -30 0 -30 0 0 98 c0 103 -3 113 -37 131 -31 16 -41 14 -68 -14 -23 -22 -25 -32 -25 -120 l0 -95 -31 0 -31 0 4 105 c3 86 7 109 24 132 38 51 115 62 172 26z m325 5 c11 -5 17 -5 17 2 0 5 11 10 25 10 24 0 25 -2 25 -70 l0 -70 -55 0 c-48 0 -55 2 -55 20 0 16 7 20 30 20 41 0 39 22 -4 45 -30 16 -38 17 -66 5 -60 -25 -74 -106 -27 -157 25 -28 75 -30 103 -4 15 13 25 16 37 9 26 -14 20 -36 -15 -58 -91 -56 -208 14 -208 123 0 107 101 172 193 125z m-3893 -48 l0 -60 65 0 65 0 0 60 c0 57 1 60 25 60 l25 0 0 -140 0 -140 -25 0 c-24 0 -25 3 -25 60 l0 60 -65 0 -65 0 0 -60 c0 -57 -1 -60 -25 -60 l-25 0 0 140 0 140 25 0 c24 0 25 -3 25 -60z m480 40 c0 -18 -7 -20 -70 -20 l-70 0 0 -40 0 -40 60 0 c53 0 60 -2 60 -20 0 -18 -7 -20 -60 -20 l-60 0 0 -35 0 -35 70 0 c68 0 70 -1 70 -25 l0 -25 -100 0 -100 0 0 140 0 140 100 0 c93 0 100 -1 100 -20z m126 -12 c9 -31 13 -33 61 -36 51 -3 51 -3 63 33 10 29 16 35 41 35 l29 0 -15 -37 c-8 -21 -32 -83 -53 -138 -33 -86 -41 -100 -62 -103 -25 -3 -34 15 -126 261 -5 14 -1 17 23 17 25 0 32 -5 39 -32z m464 12 c0 -18 -7 -20 -70 -20 l-70 0 0 -120 0 -120 -30 0 -30 0 0 140 0 140 100 0 c93 0 100 -1 100 -20z m130 -120 l0 -140 -30 0 -30 0 0 140 0 140 30 0 30 0 0 -140z m150 49 l0 -92 73 91 c52 67 78 92 95 92 22 0 22 -1 22 -140 l0 -140 -25 0 c-24 0 -24 2 -27 91 l-3 91 -73 -91 c-47 -60 -79 -91 -92 -91 -19 0 -20 7 -20 140 l0 140 25 0 c25 0 25 -1 25 -91z m880 -24 l0 -115 45 0 c41 0 45 -2 45 -25 l0 -25 -120 0 -120 0 0 25 c0 23 4 25 45 25 l45 0 0 115 0 115 30 0 30 0 0 -115z m220 55 l0 -60 65 0 65 0 0 60 c0 57 1 60 25 60 l25 0 0 -140 0 -140 -25 0 c-24 0 -25 3 -25 60 l0 60 -65 0 -65 0 0 -60 0 -60 -30 0 -30 0 0 140 0 140 30 0 30 0 0 -60z m340 15 c0 -41 2 -45 25 -45 19 0 32 11 53 45 21 36 32 45 54 45 34 0 35 -6 3 -52 -30 -45 -30 -46 -4 -74 33 -35 29 -92 -10 -126 -28 -25 -38 -28 -106 -28 l-75 0 0 140 0 140 30 0 c29 0 30 -2 30 -45z m1310 -15 l0 -60 65 0 65 0 0 60 c0 57 1 60 25 60 l25 0 0 -140 0 -140 -25 0 c-24 0 -25 3 -25 60 l0 60 -65 0 -65 0 0 -60 0 -60 -30 0 -30 0 0 140 0 140 30 0 30 0 0 -60z m-1390 -850 l0 -140 110 0 110 0 0 140 0 140 80 0 80 0 0 -345 0 -345 -80 0 -80 0 0 135 0 135 -110 0 -110 0 0 -135 0 -135 -80 0 -80 0 0 345 0 345 80 0 80 0 0 -140z m940 70 l0 -70 -120 0 -120 0 0 -70 0 -70 115 0 115 0 0 -70 0 -70 -115 0 -115 0 0 -65 0 -65 120 0 120 0 0 -70 0 -70 -200 0 -200 0 0 345 0 345 200 0 200 0 0 -70z m271 0 l24 -70 132 0 132 0 21 58 c11 31 23 63 25 70 3 8 30 12 90 12 l85 0 -17 -42 c-9 -24 -71 -178 -138 -343 l-121 -300 -76 -3 -75 -3 -137 339 c-75 186 -136 341 -136 345 0 4 38 7 83 7 l84 0 24 -70z m999 0 l0 -70 -120 0 -120 0 0 -275 0 -275 -80 0 -80 0 0 345 0 345 200 0 200 0 0 -70z m-2386 -748 c151 -23 250 -80 300 -171 55 -103 52 -234 -9 -357 -27 -56 -63 -102 -159 -202 -124 -131 -175 -195 -201 -255 -12 -28 -14 47 -12 593 0 344 3 575 4 514 l4 -111 73 -11z"/>
</g>
<g id="layer104" fill="#b3bf25" stroke="none">
<path d="M0 6000 l0 -6000 6000 0 6000 0 0 6000 0 6000 -6000 0 -6000 0 0 -6000z m4952 2173 l3 -87 70 87 c50 63 76 87 93 87 22 0 22 -1 22 -140 l0 -140 -25 0 c-24 0 -24 2 -27 92 l-3 93 -73 -93 c-48 -60 -79 -92 -92 -92 -19 0 -20 7 -20 140 l0 140 25 0 c24 0 24 -2 27 -87z m490 58 l33 -29 3 -111 4 -111 -26 0 c-26 0 -26 0 -26 84 0 99 -10 133 -44 146 -65 25 -96 -21 -96 -145 0 -85 0 -85 -26 -85 l-26 0 4 111 3 111 33 29 c26 24 41 29 82 29 41 0 56 -5 82 -29z m258 -86 l0 -115 45 0 c41 0 45 -2 45 -25 l0 -25 -115 0 -115 0 0 25 c0 23 4 25 45 25 l45 0 0 115 0 115 25 0 25 0 0 -115z m220 70 c0 -43 1 -45 29 -45 24 0 34 8 55 45 23 38 32 45 57 45 l31 0 -30 -51 -29 -51 23 -23 c35 -35 33 -88 -5 -126 -27 -27 -35 -29 -105 -29 l-76 0 0 140 0 140 25 0 c23 0 25 -4 25 -45z m310 -95 l0 -140 -30 0 -30 0 0 140 0 140 30 0 30 0 0 -140z m220 25 l0 -115 45 0 c41 0 45 -2 45 -25 l0 -25 -120 0 -120 0 0 25 c0 23 4 25 45 25 l45 0 0 115 0 115 30 0 30 0 0 -115z m220 -25 l0 -140 -30 0 -30 0 0 140 0 140 30 0 30 0 0 -140z m280 127 c92 -46 93 -204 1 -252 -121 -62 -244 66 -184 192 30 64 118 93 183 60z m210 -78 l0 -92 73 91 c52 67 78 92 95 92 22 0 22 -1 22 -140 l0 -140 -25 0 c-24 0 -24 2 -27 91 l-3 91 -73 -91 c-47 -60 -79 -91 -92 -91 -19 0 -20 7 -20 140 l0 140 25 0 c25 0 25 -1 25 -91z m-1327 -417 c15 -14 17 -13 17 1 0 10 8 17 20 17 18 0 20 -7 20 -70 l0 -70 -50 0 c-43 0 -50 3 -50 20 0 16 7 20 30 20 35 0 38 10 10 35 -27 24 -83 24 -109 1 -41 -37 -35 -132 10 -156 29 -16 71 -11 94 10 18 17 24 18 39 7 22 -16 13 -38 -23 -60 -63 -37 -153 -10 -187 54 -25 50 -15 131 21 169 47 49 116 58 158 22z m1405 1 c60 -37 81 -136 42 -198 -72 -117 -250 -60 -250 80 0 110 116 177 208 118z m340 0 c37 -23 52 -73 52 -173 l0 -90 -30 0 -30 0 0 98 c0 103 -3 113 -37 131 -31 16 -41 14 -68 -14 -23 -22 -25 -32 -25 -120 l0 -95 -31 0 -31 0 4 105 c3 86 7 109 24 132 38 51 115 62 172 26z m325 5 c11 -5 17 -5 17 2 0 5 11 10 25 10 24 0 25 -2 25 -70 l0 -70 -55 0 c-48 0 -55 2 -55 20 0 16 7 20 30 20 41 0 39 22 -4 45 -30 16 -38 17 -66 5 -60 -25 -74 -106 -27 -157 25 -28 75 -30 103 -4 15 13 25 16 37 9 26 -14 20 -36 -15 -58 -91 -56 -208 14 -208 123 0 107 101 172 193 125z m-3893 -48 l0 -60 65 0 65 0 0 60 c0 57 1 60 25 60 l25 0 0 -140 0 -140 -25 0 c-24 0 -25 3 -25 60 l0 60 -65 0 -65 0 0 -60 c0 -57 -1 -60 -25 -60 l-25 0 0 140 0 140 25 0 c24 0 25 -3 25 -60z m480 40 c0 -18 -7 -20 -70 -20 l-70 0 0 -40 0 -40 60 0 c53 0 60 -2 60 -20 0 -18 -7 -20 -60 -20 l-60 0 0 -35 0 -35 70 0 c68 0 70 -1 70 -25 l0 -25 -100 0 -100 0 0 140 0 140 100 0 c93 0 100 -1 100 -20z m126 -12 c9 -31 13 -33 61 -36 51 -3 51 -3 63 33 10 29 16 35 41 35 l29 0 -15 -37 c-8 -21 -32 -83 -53 -138 -33 -86 -41 -100 -62 -103 -25 -3 -34 15 -126 261 -5 14 -1 17 23 17 25 0 32 -5 39 -32z m464 12 c0 -18 -7 -20 -70 -20 l-70 0 0 -120 0 -120 -30 0 -30 0 0 140 0 140 100 0 c93 0 100 -1 100 -20z m130 -120 l0 -140 -30 0 -30 0 0 140 0 140 30 0 30 0 0 -140z m150 49 l0 -92 73 91 c52 67 78 92 95 92 22 0 22 -1 22 -140 l0 -140 -25 0 c-24 0 -24 2 -27 91 l-3 91 -73 -91 c-47 -60 -79 -91 -92 -91 -19 0 -20 7 -20 140 l0 140 25 0 c25 0 25 -1 25 -91z m880 -24 l0 -115 45 0 c41 0 45 -2 45 -25 l0 -25 -120 0 -120 0 0 25 c0 23 4 25 45 25 l45 0 0 115 0 115 30 0 30 0 0 -115z m220 55 l0 -60 65 0 65 0 0 60 c0 57 1 60 25 60 l25 0 0 -140 0 -140 -25 0 c-24 0 -25 3 -25 60 l0 60 -65 0 -65 0 0 -60 0 -60 -30 0 -30 0 0 140 0 140 30 0 30 0 0 -60z m340 15 c0 -41 2 -45 25 -45 19 0 32 11 53 45 21 36 32 45 54 45 34 0 35 -6 3 -52 -30 -45 -30 -46 -4 -74 33 -35 29 -92 -10 -126 -28 -25 -38 -28 -106 -28 l-75 0 0 140 0 140 30 0 c29 0 30 -2 30 -45z m1310 -15 l0 -60 65 0 65 0 0 60 c0 57 1 60 25 60 l25 0 0 -140 0 -140 -25 0 c-24 0 -25 3 -25 60 l0 60 -65 0 -65 0 0 -60 0 -60 -30 0 -30 0 0 140 0 140 30 0 30 0 0 -60z m800 -475 l0 -25 -2700 0 -2700 0 0 25 0 25 2700 0 2700 0 0 -25z m-2190 -375 l0 -140 110 0 110 0 0 140 0 140 80 0 80 0 0 -345 0 -345 -80 0 -80 0 0 135 0 135 -110 0 -110 0 0 -135 0 -135 -80 0 -80 0 0 345 0 345 80 0 80 0 0 -140z m940 70 l0 -70 -120 0 -120 0 0 -70 0 -70 115 0 115 0 0 -70 0 -70 -115 0 -115 0 0 -65 0 -65 120 0 120 0 0 -70 0 -70 -200 0 -200 0 0 345 0 345 200 0 200 0 0 -70z m271 0 l24 -70 132 0 132 0 21 58 c11 31 23 63 25 70 3 8 30 12 90 12 l85 0 -17 -42 c-9 -24 -71 -178 -138 -343 l-121 -300 -76 -3 -75 -3 -137 339 c-75 186 -136 341 -136 345 0 4 38 7 83 7 l84 0 24 -70z m999 0 l0 -70 -120 0 -120 0 0 -275 0 -275 -80 0 -80 0 0 345 0 345 200 0 200 0 0 -70z m-2386 -748 c151 -23 250 -80 300 -171 55 -103 52 -234 -9 -357 -27 -56 -63 -102 -159 -202 -124 -131 -175 -195 -201 -255 -12 -28 -14 47 -12 593 0 344 3 575 4 514 l4 -111 73 -11z"/>
</g>
<g id="layer105" fill="#c2cf28" stroke="none">
<path d="M0 6000 l0 -6000 6000 0 6000 0 0 6000 0 6000 -6000 0 -6000 0 0 -6000z m4952 2173 l3 -87 70 87 c50 63 76 87 93 87 22 0 22 -1 22 -140 l0 -140 -25 0 c-24 0 -24 2 -27 92 l-3 93 -73 -93 c-48 -60 -79 -92 -92 -92 -19 0 -20 7 -20 140 l0 140 25 0 c24 0 24 -2 27 -87z m490 58 l33 -29 3 -111 4 -111 -26 0 c-26 0 -26 0 -26 84 0 99 -10 133 -44 146 -65 25 -96 -21 -96 -145 0 -85 0 -85 -26 -85 l-26 0 4 111 3 111 33 29 c26 24 41 29 82 29 41 0 56 -5 82 -29z m258 -86 l0 -115 45 0 c41 0 45 -2 45 -25 l0 -25 -115 0 -115 0 0 25 c0 23 4 25 45 25 l45 0 0 115 0 115 25 0 25 0 0 -115z m220 70 c0 -43 1 -45 29 -45 24 0 34 8 55 45 23 38 32 45 57 45 l31 0 -30 -51 -29 -51 23 -23 c35 -35 33 -88 -5 -126 -27 -27 -35 -29 -105 -29 l-76 0 0 140 0 140 25 0 c23 0 25 -4 25 -45z m310 -95 l0 -140 -30 0 -30 0 0 140 0 140 30 0 30 0 0 -140z m220 25 l0 -115 45 0 c41 0 45 -2 45 -25 l0 -25 -120 0 -120 0 0 25 c0 23 4 25 45 25 l45 0 0 115 0 115 30 0 30 0 0 -115z m220 -25 l0 -140 -30 0 -30 0 0 140 0 140 30 0 30 0 0 -140z m280 127 c92 -46 93 -204 1 -252 -121 -62 -244 66 -184 192 30 64 118 93 183 60z m210 -78 l0 -92 73 91 c52 67 78 92 95 92 22 0 22 -1 22 -140 l0 -140 -25 0 c-24 0 -24 2 -27 91 l-3 91 -73 -91 c-47 -60 -79 -91 -92 -91 -19 0 -20 7 -20 140 l0 140 25 0 c25 0 25 -1 25 -91z m-1327 -417 c15 -14 17 -13 17 1 0 10 8 17 20 17 18 0 20 -7 20 -70 l0 -70 -50 0 c-43 0 -50 3 -50 20 0 16 7 20 30 20 35 0 38 10 10 35 -27 24 -83 24 -109 1 -41 -37 -35 -132 10 -156 29 -16 71 -11 94 10 18 17 24 18 39 7 22 -16 13 -38 -23 -60 -63 -37 -153 -10 -187 54 -25 50 -15 131 21 169 47 49 116 58 158 22z m1405 1 c60 -37 81 -136 42 -198 -72 -117 -250 -60 -250 80 0 110 116 177 208 118z m340 0 c37 -23 52 -73 52 -173 l0 -90 -30 0 -30 0 0 98 c0 103 -3 113 -37 131 -31 16 -41 14 -68 -14 -23 -22 -25 -32 -25 -120 l0 -95 -31 0 -31 0 4 105 c3 86 7 109 24 132 38 51 115 62 172 26z m325 5 c11 -5 17 -5 17 2 0 5 11 10 25 10 24 0 25 -2 25 -70 l0 -70 -55 0 c-48 0 -55 2 -55 20 0 16 7 20 30 20 41 0 39 22 -4 45 -30 16 -38 17 -66 5 -60 -25 -74 -106 -27 -157 25 -28 75 -30 103 -4 15 13 25 16 37 9 26 -14 20 -36 -15 -58 -91 -56 -208 14 -208 123 0 107 101 172 193 125z m-3893 -48 l0 -60 65 0 65 0 0 60 c0 57 1 60 25 60 l25 0 0 -140 0 -140 -25 0 c-24 0 -25 3 -25 60 l0 60 -65 0 -65 0 0 -60 c0 -57 -1 -60 -25 -60 l-25 0 0 140 0 140 25 0 c24 0 25 -3 25 -60z m480 40 c0 -18 -7 -20 -70 -20 l-70 0 0 -40 0 -40 60 0 c53 0 60 -2 60 -20 0 -18 -7 -20 -60 -20 l-60 0 0 -35 0 -35 70 0 c68 0 70 -1 70 -25 l0 -25 -100 0 -100 0 0 140 0 140 100 0 c93 0 100 -1 100 -20z m126 -12 c9 -31 13 -33 61 -36 51 -3 51 -3 63 33 10 29 16 35 41 35 l29 0 -15 -37 c-8 -21 -32 -83 -53 -138 -33 -86 -41 -100 -62 -103 -25 -3 -34 15 -126 261 -5 14 -1 17 23 17 25 0 32 -5 39 -32z m464 12 c0 -18 -7 -20 -70 -20 l-70 0 0 -120 0 -120 -30 0 -30 0 0 140 0 140 100 0 c93 0 100 -1 100 -20z m130 -120 l0 -140 -30 0 -30 0 0 140 0 140 30 0 30 0 0 -140z m150 49 l0 -92 73 91 c52 67 78 92 95 92 22 0 22 -1 22 -140 l0 -140 -25 0 c-24 0 -24 2 -27 91 l-3 91 -73 -91 c-47 -60 -79 -91 -92 -91 -19 0 -20 7 -20 140 l0 140 25 0 c25 0 25 -1 25 -91z m880 -24 l0 -115 45 0 c41 0 45 -2 45 -25 l0 -25 -120 0 -120 0 0 25 c0 23 4 25 45 25 l45 0 0 115 0 115 30 0 30 0 0 -115z m220 55 l0 -60 65 0 65 0 0 60 c0 57 1 60 25 60 l25 0 0 -140 0 -140 -25 0 c-24 0 -25 3 -25 60 l0 60 -65 0 -65 0 0 -60 0 -60 -30 0 -30 0 0 140 0 140 30 0 30 0 0 -60z m340 15 c0 -41 2 -45 25 -45 19 0 32 11 53 45 21 36 32 45 54 45 34 0 35 -6 3 -52 -30 -45 -30 -46 -4 -74 33 -35 29 -92 -10 -126 -28 -25 -38 -28 -106 -28 l-75 0 0 140 0 140 30 0 c29 0 30 -2 30 -45z m1310 -15 l0 -60 65 0 65 0 0 60 c0 57 1 60 25 60 l25 0 0 -140 0 -140 -25 0 c-24 0 -25 3 -25 60 l0 60 -65 0 -65 0 0 -60 0 -60 -30 0 -30 0 0 140 0 140 30 0 30 0 0 -60z m800 -475 l0 -25 -2700 0 -2700 0 0 25 0 25 2700 0 2700 0 0 -25z m-2190 -375 l0 -140 110 0 110 0 0 140 0 140 80 0 80 0 0 -345 0 -345 -80 0 -80 0 0 135 0 135 -110 0 -110 0 0 -135 0 -135 -80 0 -80 0 0 345 0 345 80 0 80 0 0 -140z m940 70 l0 -70 -120 0 -120 0 0 -70 0 -70 115 0 115 0 0 -70 0 -70 -115 0 -115 0 0 -65 0 -65 120 0 120 0 0 -70 0 -70 -200 0 -200 0 0 345 0 345 200 0 200 0 0 -70z m271 0 l24 -70 132 0 132 0 21 58 c11 31 23 63 25 70 3 8 30 12 90 12 l85 0 -17 -42 c-9 -24 -71 -178 -138 -343 l-121 -300 -76 -3 -75 -3 -137 339 c-75 186 -136 341 -136 345 0 4 38 7 83 7 l84 0 24 -70z m999 0 l0 -70 -120 0 -120 0 0 -275 0 -275 -80 0 -80 0 0 345 0 345 200 0 200 0 0 -70z m-2386 -748 c151 -23 250 -80 300 -171 55 -103 52 -234 -9 -357 -27 -56 -63 -102 -159 -202 -127 -133 -176 -196 -202 -258 l-15 -35 -30 60 c-20 41 -72 105 -164 202 -185 198 -234 286 -235 420 0 104 22 163 88 229 65 65 134 96 250 113 l72 11 0 38 c0 21 5 38 10 38 6 0 11 32 12 73 2 51 3 40 5 -39 l4 -111 73 -11z"/>
<path d="M6455 5720 c0 -239 1 -337 2 -217 2 119 2 315 0 435 -1 119 -2 21 -2 -218z"/>
</g>
<g id="layer106" fill="#ffffff" stroke="none">
<path d="M0 6000 l0 -6000 6000 0 6000 0 0 6000 0 6000 -6000 0 -6000 0 0 -6000z m4952 2173 l3 -87 70 87 c50 63 76 87 93 87 22 0 22 -1 22 -140 l0 -140 -25 0 c-24 0 -24 2 -27 92 l-3 93 -73 -93 c-48 -60 -79 -92 -92 -92 -19 0 -20 7 -20 140 l0 140 25 0 c24 0 24 -2 27 -87z m490 58 l33 -29 3 -111 4 -111 -26 0 c-26 0 -26 0 -26 84 0 99 -10 133 -44 146 -65 25 -96 -21 -96 -145 0 -85 0 -85 -26 -85 l-26 0 4 111 3 111 33 29 c26 24 41 29 82 29 41 0 56 -5 82 -29z m258 -86 l0 -115 45 0 c41 0 45 -2 45 -25 l0 -25 -115 0 -115 0 0 25 c0 23 4 25 45 25 l45 0 0 115 0 115 25 0 25 0 0 -115z m220 70 c0 -43 1 -45 29 -45 24 0 34 8 55 45 23 38 32 45 57 45 l31 0 -30 -51 -29 -51 23 -23 c35 -35 33 -88 -5 -126 -27 -27 -35 -29 -105 -29 l-76 0 0 140 0 140 25 0 c23 0 25 -4 25 -45z m310 -95 l0 -140 -30 0 -30 0 0 140 0 140 30 0 30 0 0 -140z m220 25 l0 -115 45 0 c41 0 45 -2 45 -25 l0 -25 -120 0 -120 0 0 25 c0 23 4 25 45 25 l45 0 0 115 0 115 30 0 30 0 0 -115z m220 -25 l0 -140 -30 0 -30 0 0 140 0 140 30 0 30 0 0 -140z m280 127 c92 -46 93 -204 1 -252 -121 -62 -244 66 -184 192 30 64 118 93 183 60z m210 -78 l0 -92 73 91 c52 67 78 92 95 92 22 0 22 -1 22 -140 l0 -140 -25 0 c-24 0 -24 2 -27 91 l-3 91 -73 -91 c-47 -60 -79 -91 -92 -91 -19 0 -20 7 -20 140 l0 140 25 0 c25 0 25 -1 25 -91z m-1327 -417 c15 -14 17 -13 17 1 0 10 8 17 20 17 18 0 20 -7 20 -70 l0 -70 -50 0 c-43 0 -50 3 -50 20 0 16 7 20 30 20 35 0 38 10 10 35 -27 24 -83 24 -109 1 -41 -37 -35 -132 10 -156 29 -16 71 -11 94 10 18 17 24 18 39 7 22 -16 13 -38 -23 -60 -63 -37 -153 -10 -187 54 -25 50 -15 131 21 169 47 49 116 58 158 22z m1405 1 c60 -37 81 -136 42 -198 -72 -117 -250 -60 -250 80 0 110 116 177 208 118z m340 0 c37 -23 52 -73 52 -173 l0 -90 -30 0 -30 0 0 98 c0 103 -3 113 -37 131 -31 16 -41 14 -68 -14 -23 -22 -25 -32 -25 -120 l0 -95 -31 0 -31 0 4 105 c3 86 7 109 24 132 38 51 115 62 172 26z m325 5 c11 -5 17 -5 17 2 0 5 11 10 25 10 24 0 25 -2 25 -70 l0 -70 -55 0 c-48 0 -55 2 -55 20 0 16 7 20 30 20 41 0 39 22 -4 45 -30 16 -38 17 -66 5 -60 -25 -74 -106 -27 -157 25 -28 75 -30 103 -4 15 13 25 16 37 9 26 -14 20 -36 -15 -58 -91 -56 -208 14 -208 123 0 107 101 172 193 125z m-3893 -48 l0 -60 65 0 65 0 0 60 c0 57 1 60 25 60 l25 0 0 -140 0 -140 -25 0 c-24 0 -25 3 -25 60 l0 60 -65 0 -65 0 0 -60 c0 -57 -1 -60 -25 -60 l-25 0 0 140 0 140 25 0 c24 0 25 -3 25 -60z m480 40 c0 -18 -7 -20 -70 -20 l-70 0 0 -40 0 -40 60 0 c53 0 60 -2 60 -20 0 -18 -7 -20 -60 -20 l-60 0 0 -35 0 -35 70 0 c68 0 70 -1 70 -25 l0 -25 -100 0 -100 0 0 140 0 140 100 0 c93 0 100 -1 100 -20z m126 -12 c9 -31 13 -33 61 -36 51 -3 51 -3 63 33 10 29 16 35 41 35 l29 0 -15 -37 c-8 -21 -32 -83 -53 -138 -33 -86 -41 -100 -62 -103 -25 -3 -34 15 -126 261 -5 14 -1 17 23 17 25 0 32 -5 39 -32z m464 12 c0 -18 -7 -20 -70 -20 l-70 0 0 -120 0 -120 -30 0 -30 0 0 140 0 140 100 0 c93 0 100 -1 100 -20z m130 -120 l0 -140 -30 0 -30 0 0 140 0 140 30 0 30 0 0 -140z m150 49 l0 -92 73 91 c52 67 78 92 95 92 22 0 22 -1 22 -140 l0 -140 -25 0 c-24 0 -24 2 -27 91 l-3 91 -73 -91 c-47 -60 -79 -91 -92 -91 -19 0 -20 7 -20 140 l0 140 25 0 c25 0 25 -1 25 -91z m880 -24 l0 -115 45 0 c41 0 45 -2 45 -25 l0 -25 -120 0 -120 0 0 25 c0 23 4 25 45 25 l45 0 0 115 0 115 30 0 30 0 0 -115z m220 55 l0 -60 65 0 65 0 0 60 c0 57 1 60 25 60 l25 0 0 -140 0 -140 -25 0 c-24 0 -25 3 -25 60 l0 60 -65 0 -65 0 0 -60 0 -60 -30 0 -30 0 0 140 0 140 30 0 30 0 0 -60z m340 15 c0 -41 2 -45 25 -45 19 0 32 11 53 45 21 36 32 45 54 45 34 0 35 -6 3 -52 -30 -45 -30 -46 -4 -74 33 -35 29 -92 -10 -126 -28 -25 -38 -28 -106 -28 l-75 0 0 140 0 140 30 0 c29 0 30 -2 30 -45z m1310 -15 l0 -60 65 0 65 0 0 60 c0 57 1 60 25 60 l25 0 0 -140 0 -140 -25 0 c-24 0 -25 3 -25 60 l0 60 -65 0 -65 0 0 -60 0 -60 -30 0 -30 0 0 140 0 140 30 0 30 0 0 -60z m800 -475 l0 -25 -2700 0 -2700 0 0 25 0 25 2700 0 2700 0 0 -25z m-4957 -241 c69 -23 156 -107 193 -186 25 -54 29 -75 29 -153 0 -82 -3 -97 -32 -156 -39 -79 -102 -141 -180 -176 -67 -31 -181 -35 -252 -9 -93 34 -175 116 -212 214 -17 47 -20 72 -16 147 5 107 27 163 89 231 95 103 235 135 381 88z m1592 1 c28 -8 59 -21 70 -29 20 -14 20 -15 -13 -80 l-32 -66 -31 15 c-68 36 -189 28 -251 -16 -47 -34 -81 -103 -81 -165 0 -148 160 -243 312 -185 30 11 55 20 56 18 1 -1 16 -30 33 -64 l32 -62 -22 -16 c-69 -48 -243 -63 -334 -28 -120 46 -199 129 -235 246 -17 53 -20 82 -15 125 14 120 91 229 200 282 103 51 192 58 311 25z m658 -1 c69 -23 156 -107 193 -186 25 -54 29 -75 29 -153 0 -76 -4 -99 -27 -147 -107 -229 -390 -284 -565 -110 -25 26 -58 72 -72 102 -23 48 -26 68 -26 160 0 123 16 169 86 245 96 104 236 136 382 89z m-1731 -203 l3 -209 133 209 134 209 79 0 79 0 0 -345 0 -345 -80 0 -80 0 -2 209 -3 209 -133 -209 -134 -209 -79 0 -79 0 0 345 0 345 80 0 80 0 2 -209z m2248 69 l0 -140 110 0 110 0 0 140 0 140 80 0 80 0 0 -345 0 -345 -80 0 -80 0 0 135 0 135 -110 0 -110 0 0 -135 0 -135 -80 0 -80 0 0 345 0 345 80 0 80 0 0 -140z m940 70 l0 -70 -120 0 -120 0 0 -70 0 -70 115 0 115 0 0 -70 0 -70 -115 0 -115 0 0 -65 0 -65 120 0 120 0 0 -70 0 -70 -200 0 -200 0 0 345 0 345 200 0 200 0 0 -70z m271 0 l24 -70 132 0 132 0 21 58 c11 31 23 63 25 70 3 8 30 12 90 12 l85 0 -17 -42 c-9 -24 -71 -178 -138 -343 l-121 -300 -76 -3 -75 -3 -137 339 c-75 186 -136 341 -136 345 0 4 38 7 83 7 l84 0 24 -70z m999 0 l0 -70 -120 0 -120 0 0 -275 0 -275 -80 0 -80 0 0 345 0 345 200 0 200 0 0 -70z m-2460 -628 l0 -108 74 -12 c151 -23 250 -80 300 -171 55 -103 52 -234 -9 -357 -27 -56 -63 -102 -159 -202 -127 -133 -176 -196 -202 -258 l-15 -35 -30 60 c-20 41 -72 105 -164 202 -185 198 -234 286 -235 420 0 104 22 163 88 229 65 65 134 96 250 113 l72 11 0 108 c0 89 3 108 15 108 12 0 15 -19 15 -108z"/>
<path d="M5920 8075 l0 -45 45 0 c38 0 47 4 54 23 16 44 -5 67 -61 67 l-38 0 0 -45z"/>
<path d="M6859 8208 c-33 -11 -53 -49 -52 -94 3 -86 110 -118 148 -43 20 38 19 68 -4 105 -21 34 -53 45 -92 32z"/>
<path d="M7132 7720 c-29 -12 -54 -71 -46 -108 26 -109 159 -89 159 25 0 37 -5 49 -28 69 -30 25 -48 28 -85 14z"/>
<path d="M4657 7613 c9 -27 17 -50 19 -52 4 -4 21 38 30 74 6 23 3 25 -29 25 l-36 0 16 -47z"/>
<path d="M6800 7585 l0 -45 38 0 c43 0 62 14 62 45 0 31 -19 45 -62 45 l-38 0 0 -45z"/>
<path d="M3740 6839 c-62 -38 -88 -92 -89 -184 -1 -72 23 -130 68 -168 40 -33 68 -41 132 -35 97 10 153 85 153 203 0 83 -28 145 -83 182 -46 31 -131 32 -181 2z"/>
<path d="M5990 6839 c-57 -33 -82 -78 -88 -159 -6 -86 14 -146 64 -189 42 -37 69 -45 135 -39 64 6 97 31 129 94 51 100 23 236 -59 291 -45 30 -131 31 -181 2z"/>
<path d="M8013 6718 c53 -145 72 -187 77 -181 4 5 23 50 43 101 l36 92 -81 0 c-60 0 -79 -3 -75 -12z"/>
</g>


</svg>